<?xml version="1.0" encoding="UTF-8" standalone="no"?><!DOCTYPE svg PUBLIC "-//W3C//DTD SVG 1.1//EN" "http://www.w3.org/Graphics/SVG/1.1/DTD/svg11.dtd"><svg width="100%" height="100%" viewBox="0 0 487 487" version="1.1" xmlns="http://www.w3.org/2000/svg" xmlns:xlink="http://www.w3.org/1999/xlink" xml:space="preserve" xmlns:serif="http://www.serif.com/" style="fill-rule:evenodd;clip-rule:evenodd;stroke-linejoin:round;stroke-miterlimit:1.41421;"><g><rect x="23" y="23" width="1" height="441"/><rect x="78" y="23" width="1" height="441"/><rect x="133" y="23" width="1" height="441"/><rect x="188" y="23" width="1" height="441"/><rect x="243" y="23" width="1" height="441"/><rect x="298" y="23" width="1" height="441"/><rect x="353" y="23" width="1" height="441"/><rect x="408" y="23" width="1" height="441"/><rect x="463" y="23" width="1" height="441"/></g><g><path d="M464,24l0,-1l-441,0l0,1l441,0Z"/><path d="M464,79l0,-1l-441,0l0,1l441,0Z"/><path d="M464,134l0,-1l-441,0l0,1l441,0Z"/><path d="M464,189l0,-1l-441,0l0,1l441,0Z"/><path d="M464,244l0,-1l-441,0l0,1l441,0Z"/><path d="M464,299l0,-1l-441,0l0,1l441,0Z"/><path d="M464,354l0,-1l-441,0l0,1l441,0Z"/><path d="M464,409l0,-1l-441,0l0,1l441,0Z"/><path d="M464,464l0,-1l-441,0l0,1l441,0Z"/></g><circle cx="133.5" cy="133.5" r="8"/><circle cx="133.5" cy="353.5" r="8"/><circle cx="243.5" cy="243.5" r="8"/><circle cx="353.5" cy="133.5" r="8"/><circle cx="353.5" cy="353.5" r="8"/></svg>