<?xml version="1.0" encoding="UTF-8" standalone="no"?><!DOCTYPE svg PUBLIC "-//W3C//DTD SVG 1.1//EN" "http://www.w3.org/Graphics/SVG/1.1/DTD/svg11.dtd"><svg width="100%" height="100%" viewBox="0 0 487 487" version="1.1" xmlns="http://www.w3.org/2000/svg" xmlns:xlink="http://www.w3.org/1999/xlink" xml:space="preserve" xmlns:serif="http://www.serif.com/" style="fill-rule:evenodd;clip-rule:evenodd;stroke-linejoin:round;stroke-miterlimit:1.41421;"><g id="Top-to-Bottom" serif:id="Top to Bottom"><rect x="18" y="18" width="1" height="451"/><rect x="43" y="18" width="1" height="451"/><rect x="68" y="18" width="1" height="451"/><rect x="118" y="18" width="1" height="451"/><rect x="93" y="18" width="1" height="451"/><rect x="143" y="18" width="1" height="451"/><rect x="168" y="18" width="1" height="451"/><rect x="193" y="18" width="1" height="451"/><rect x="218" y="18" width="1" height="451"/><rect x="268" y="18" width="1" height="451"/><rect x="243" y="18" width="1" height="451"/><rect x="293" y="18" width="1" height="451"/><rect x="318" y="18" width="1" height="451"/><rect x="343" y="18" width="1" height="451"/><rect x="368" y="18" width="1" height="451"/><rect x="393" y="18" width="1" height="451"/><rect x="443" y="18" width="1" height="451"/><rect x="418" y="18" width="1" height="451"/><rect x="468" y="18" width="1" height="451"/></g><g id="Top-to-Bottom1" serif:id="Top to Bottom"><path d="M468,19l0,-1l-450,0l0,1l450,0Z"/><path d="M468,44l0,-1l-450,0l0,1l450,0Z"/><path d="M468,69l0,-1l-450,0l0,1l450,0Z"/><path d="M468,119l0,-1l-450,0l0,1l450,0Z"/><path d="M468,94l0,-1l-450,0l0,1l450,0Z"/><path d="M468,144l0,-1l-450,0l0,1l450,0Z"/><path d="M468,169l0,-1l-450,0l0,1l450,0Z"/><path d="M468,194l0,-1l-450,0l0,1l450,0Z"/><path d="M468,219l0,-1l-450,0l0,1l450,0Z"/><path d="M468,269l0,-1l-450,0l0,1l450,0Z"/><path d="M468,244l0,-1l-450,0l0,1l450,0Z"/><path d="M468,294l0,-1l-450,0l0,1l450,0Z"/><path d="M468,319l0,-1l-450,0l0,1l450,0Z"/><path d="M468,344l0,-1l-450,0l0,1l450,0Z"/><path d="M468,369l0,-1l-450,0l0,1l450,0Z"/><path d="M468,394l0,-1l-450,0l0,1l450,0Z"/><path d="M468,444l0,-1l-450,0l0,1l450,0Z"/><path d="M468,419l0,-1l-450,0l0,1l450,0Z"/><path d="M468,469l0,-1l-450,0l0,1l450,0Z"/></g><circle cx="93.5" cy="93.5" r="4"/><circle cx="93.5" cy="393.5" r="4"/><circle cx="243.5" cy="243.5" r="4"/><circle cx="393.5" cy="93.5" r="4"/><circle cx="393.5" cy="393.5" r="4"/></svg>