<?xml version="1.0" encoding="UTF-8" standalone="no"?><!DOCTYPE svg PUBLIC "-//W3C//DTD SVG 1.1//EN" "http://www.w3.org/Graphics/SVG/1.1/DTD/svg11.dtd"><svg width="100%" height="100%" viewBox="0 0 487 487" version="1.1" xmlns="http://www.w3.org/2000/svg" xmlns:xlink="http://www.w3.org/1999/xlink" xml:space="preserve" xmlns:serif="http://www.serif.com/" style="fill-rule:evenodd;clip-rule:evenodd;stroke-linejoin:round;stroke-miterlimit:1.41421;"><g id="Top-Bottom"><rect x="43" y="43" width="1" height="401"/><rect x="93" y="43" width="1" height="401"/><rect x="143" y="43" width="1" height="401"/><rect x="193" y="43" width="1" height="401"/><rect x="243" y="43" width="1" height="401"/><rect x="293" y="43" width="1" height="401"/><rect x="343" y="43" width="1" height="401"/><rect x="393" y="43" width="1" height="401"/><rect x="443" y="43" width="1" height="401"/></g><g id="R-L"><path d="M444,44l0,-1l-401,0l0,1l401,0Z"/><path d="M444,94l0,-1l-401,0l0,1l401,0Z"/><path d="M444,144l0,-1l-401,0l0,1l401,0Z"/><path d="M444,194l0,-1l-401,0l0,1l401,0Z"/><path d="M444,244l0,-1l-401,0l0,1l401,0Z"/><path d="M444,294l0,-1l-401,0l0,1l401,0Z"/><path d="M444,344l0,-1l-401,0l0,1l401,0Z"/><path d="M444,394l0,-1l-401,0l0,1l401,0Z"/><path d="M444,444l0,-1l-401,0l0,1l401,0Z"/></g><circle cx="243.5" cy="243.5" r="7"/><circle cx="343.5" cy="343.5" r="7"/><circle cx="143.5" cy="343.5" r="7"/><circle cx="143.5" cy="143.5" r="7"/><circle cx="343.5" cy="143.5" r="7"/></svg>