<?xml version="1.0" encoding="UTF-8" standalone="no"?><!DOCTYPE svg PUBLIC "-//W3C//DTD SVG 1.1//EN" "http://www.w3.org/Graphics/SVG/1.1/DTD/svg11.dtd"><svg width="100%" height="100%" viewBox="0 0 487 487" version="1.1" xmlns="http://www.w3.org/2000/svg" xmlns:xlink="http://www.w3.org/1999/xlink" xml:space="preserve" xmlns:serif="http://www.serif.com/" style="fill-rule:evenodd;clip-rule:evenodd;stroke-linejoin:round;stroke-miterlimit:1.41421;"><g><rect x="21" y="21" width="1" height="444.015"/><rect x="58" y="21" width="1" height="444.015"/><rect x="95" y="21" width="1" height="444.015"/><rect x="132" y="21" width="1" height="444.015"/><rect x="169" y="21" width="1" height="444.015"/><rect x="206" y="21" width="1" height="444.015"/><rect x="243" y="21" width="1" height="444.015"/><rect x="280" y="21" width="1" height="444.015"/><rect x="317" y="21" width="1" height="444.015"/><rect x="354" y="21" width="1" height="444.015"/><rect x="391" y="21" width="1" height="444.015"/><rect x="428" y="21" width="1" height="444.015"/><rect x="465" y="21.985" width="1" height="444.015"/></g><g><path d="M466,22l0,-1l-444.015,0l0,1l444.015,0Z"/><path d="M466,59l0,-1l-444.015,0l0,1l444.015,0Z"/><path d="M466,96l0,-1l-444.015,0l0,1l444.015,0Z"/><path d="M466,133l0,-1l-444.015,0l0,1l444.015,0Z"/><path d="M466,170l0,-1l-444.015,0l0,1l444.015,0Z"/><path d="M466,207l0,-1l-444.015,0l0,1l444.015,0Z"/><path d="M466,244l0,-1l-444.015,0l0,1l444.015,0Z"/><path d="M466,281l0,-1l-444.015,0l0,1l444.015,0Z"/><path d="M466,318l0,-1l-444.015,0l0,1l444.015,0Z"/><path d="M466,355l0,-1l-444.015,0l0,1l444.015,0Z"/><path d="M466,392l0,-1l-444.015,0l0,1l444.015,0Z"/><path d="M466,429l0,-1l-444.015,0l0,1l444.015,0Z"/><path d="M465.015,466l0,-1l-444.015,0l0,1l444.015,0Z"/></g><circle cx="132.5" cy="132.5" r="6"/><circle cx="132.5" cy="354.5" r="6"/><circle cx="243.5" cy="243.5" r="6"/><circle cx="354.5" cy="132.5" r="6"/><circle cx="354.5" cy="354.5" r="6"/></svg>